<svg width="89" height="85" viewBox="0 0 89 85" fill="none" xmlns="http://www.w3.org/2000/svg">
<g opacity="0.7">
<path fill-rule="evenodd" clip-rule="evenodd" d="M51.7643 119.321C56.9212 121.298 62.7043 118.72 64.6811 113.563L86.6778 56.1809C88.6547 51.024 86.0767 45.2409 80.9198 43.2641L70.7196 39.354L59.5552 35.0743L48.3909 30.7946L38.2732 26.9161L37.4929 26.617C32.336 24.6402 26.5529 27.2182 24.5761 32.3751L2.57936 89.7574C0.602525 94.9143 3.1805 100.697 8.33743 102.674L51.7643 119.321Z" fill="#FFAA4C"/>
<path d="M70.7196 39.354L80.9198 43.2641C86.0767 45.2409 88.6547 51.024 86.6778 56.1809L64.6811 113.563C62.7043 118.72 56.9212 121.298 51.7643 119.321L8.33743 102.674C3.1805 100.697 0.602526 94.9143 2.57936 89.7574L24.5761 32.3751C26.5529 27.2182 32.336 24.6402 37.4929 26.617L38.2732 26.9161M70.7196 39.354C72.6966 32.1088 74.0852 16.795 63.8233 13.5015C53.5614 10.208 49.2592 23.6579 48.3909 30.7946M70.7196 39.354L59.5552 35.0743M48.3909 30.7946L59.5552 35.0743M48.3909 30.7946L38.2732 26.9161M59.5552 35.0743C63.455 25.1612 68.9543 4.6408 59.7532 1.86375C50.552 -0.913291 41.5993 17.4082 38.2732 26.9161" stroke="#FFAA4C" stroke-width="2" stroke-linecap="round" stroke-linejoin="round"/>
</g>
</svg>
